<svg fill="#FFFFFF" xmlns="http://www.w3.org/2000/svg"  viewBox="0 0 50 50" width="50px" height="50px"><path d="M 25 2.0625 L 24.15625 3.5 L 21.6875 7.59375 L 19.84375 4.5 L 19 3.0625 L 18.15625 4.5 L 15.6875 8.59375 L 13.84375 5.5 L 13 4.0625 L 12.15625 5.5 L 10.3125 8.59375 L 7.84375 4.5 L 7 3.0625 L 6.15625 4.5 L 3.15625 9.5 L 3 9.71875 L 3 14 L 2 14 L 2 16 L 48 16 L 48 14 L 47 14 L 47 9.71875 L 46.84375 9.5 L 43.84375 4.5 L 43 3.0625 L 42.15625 4.5 L 40 8.09375 L 37.84375 4.5 L 37 3.0625 L 36.15625 4.5 L 33.625 8.71875 L 31 4.34375 L 30.15625 5.75 L 28.6875 8.21875 L 25.84375 3.5 Z M 25 5.90625 L 27 9.25 L 27 14 L 23 14 L 23 9.25 Z M 7 6.90625 L 9 10.25 L 9 14 L 5 14 L 5 10.25 Z M 19 6.90625 L 21 10.25 L 21 14 L 17 14 L 17 10.25 Z M 37 6.90625 L 39 10.25 L 39 14 L 35 14 L 35 10.25 Z M 43 6.90625 L 45 10.25 L 45 14 L 41 14 L 41 10.25 Z M 13 7.90625 L 15 11.25 L 15 14 L 11 14 L 11 11.25 Z M 31 8.1875 L 33 11.53125 L 33 14 L 29 14 L 29 11.53125 Z M 3.90625 17.96875 C 3.875 17.976563 3.84375 17.988281 3.8125 18 L 2 18 L 2 20 L 3 20 L 3 34 L 2 34 L 2 36 L 48 36 L 48 34 L 47 34 L 47 20 L 48 20 L 48 18 L 46.21875 18 C 46.117188 17.972656 46.011719 17.960938 45.90625 17.96875 C 45.875 17.976563 45.84375 17.988281 45.8125 18 L 40.21875 18 C 40.117188 17.972656 40.011719 17.960938 39.90625 17.96875 C 39.875 17.976563 39.84375 17.988281 39.8125 18 L 34.21875 18 C 34.117188 17.972656 34.011719 17.960938 33.90625 17.96875 C 33.875 17.976563 33.84375 17.988281 33.8125 18 L 28.21875 18 C 28.117188 17.972656 28.011719 17.960938 27.90625 17.96875 C 27.875 17.976563 27.84375 17.988281 27.8125 18 L 22.21875 18 C 22.117188 17.972656 22.011719 17.960938 21.90625 17.96875 C 21.875 17.976563 21.84375 17.988281 21.8125 18 L 16.21875 18 C 16.117188 17.972656 16.011719 17.960938 15.90625 17.96875 C 15.875 17.976563 15.84375 17.988281 15.8125 18 L 10.21875 18 C 10.117188 17.972656 10.011719 17.960938 9.90625 17.96875 C 9.875 17.976563 9.84375 17.988281 9.8125 18 L 4.21875 18 C 4.117188 17.972656 4.011719 17.960938 3.90625 17.96875 Z M 5 20 L 9 20 L 9 34 L 5 34 Z M 11 20 L 15 20 L 15 34 L 11 34 Z M 17 20 L 21 20 L 21 34 L 17 34 Z M 23 20 L 27 20 L 27 34 L 23 34 Z M 29 20 L 33 20 L 33 34 L 29 34 Z M 35 20 L 39 20 L 39 34 L 35 34 Z M 41 20 L 45 20 L 45 34 L 41 34 Z M 3.90625 37.96875 C 3.875 37.976563 3.84375 37.988281 3.8125 38 L 2 38 L 2 40 L 3 40 L 3 48 L 47 48 L 47 40 L 48 40 L 48 38 L 40.1875 38 C 40.054688 37.972656 39.914063 37.972656 39.78125 38 L 34.1875 38 C 34.097656 37.976563 34 37.964844 33.90625 37.96875 C 33.863281 37.976563 33.820313 37.988281 33.78125 38 L 28.09375 38 C 27.988281 37.984375 27.886719 37.984375 27.78125 38 L 22.21875 38 C 22.117188 37.972656 22.011719 37.960938 21.90625 37.96875 C 21.875 37.976563 21.84375 37.988281 21.8125 38 L 16.09375 38 C 15.988281 37.984375 15.886719 37.984375 15.78125 38 L 10.09375 38 C 9.988281 37.984375 9.886719 37.984375 9.78125 38 L 4.21875 38 C 4.117188 37.972656 4.011719 37.960938 3.90625 37.96875 Z M 5 40 L 9 40 L 9 46 L 5 46 Z M 11 40 L 15 40 L 15 46 L 11 46 Z M 17 40 L 21 40 L 21 46 L 17 46 Z M 23 40 L 27 40 L 27 46 L 23 46 Z M 29 40 L 33 40 L 33 46 L 29 46 Z M 35 40 L 39 40 L 39 46 L 35 46 Z M 41 40 L 45 40 L 45 46 L 41 46 Z"/></svg>