<svg fill="#FFFFFF" xmlns="http://www.w3.org/2000/svg"  viewBox="0 0 50 50" width="50px" height="50px"><path d="M 19 2 C 16.746094 2 15.078125 2.917969 13.96875 4.21875 C 12.859375 5.519531 12.226563 7.144531 11.65625 8.65625 C 11.085938 10.167969 10.570313 11.582031 9.875 12.53125 C 9.320313 13.289063 8.734375 13.773438 7.78125 13.9375 C 7.648438 13.59375 7.464844 13.269531 7.21875 13 C 7.699219 12.46875 8 11.765625 8 11 C 8 9.355469 6.644531 8 5 8 C 3.355469 8 2 9.355469 2 11 C 2 11.765625 2.300781 12.46875 2.78125 13 C 2.300781 13.53125 2 14.234375 2 15 L 2 47 C 2 47.550781 2.449219 48 3 48 L 7 48 C 7.550781 48 8 47.550781 8 47 L 8 44.6875 L 19.375 39.9375 C 19.757813 39.785156 20.003906 39.410156 20 39 L 20 3 C 20 2.449219 19.550781 2 19 2 Z M 30.8125 2 C 30.335938 2.089844 29.992188 2.511719 30 3 L 30 39 C 29.996094 39.410156 30.242188 39.785156 30.625 39.9375 L 42 44.6875 L 42 47 C 42 47.550781 42.449219 48 43 48 L 47 48 C 47.550781 48 48 47.550781 48 47 L 48 15 C 48 14.234375 47.699219 13.53125 47.21875 13 C 47.699219 12.46875 48 11.765625 48 11 C 48 9.355469 46.644531 8 45 8 C 43.355469 8 42 9.355469 42 11 C 42 11.765625 42.300781 12.46875 42.78125 13 C 42.535156 13.269531 42.351563 13.59375 42.21875 13.9375 C 41.265625 13.773438 40.679688 13.289063 40.125 12.53125 C 39.429688 11.582031 38.914063 10.167969 38.34375 8.65625 C 37.773438 7.144531 37.140625 5.519531 36.03125 4.21875 C 34.921875 2.917969 33.253906 2 31 2 C 30.96875 2 30.9375 2 30.90625 2 C 30.875 2 30.84375 2 30.8125 2 Z M 18 4.1875 L 18 38.3125 L 8 42.5 L 8 15.75 C 9.484375 15.46875 10.726563 14.773438 11.5 13.71875 C 12.453125 12.417969 12.972656 10.832031 13.53125 9.34375 C 14.089844 7.855469 14.664063 6.480469 15.46875 5.53125 C 16.085938 4.804688 16.917969 4.386719 18 4.1875 Z M 32 4.1875 C 33.082031 4.386719 33.914063 4.804688 34.53125 5.53125 C 35.335938 6.480469 35.910156 7.855469 36.46875 9.34375 C 37.027344 10.832031 37.546875 12.417969 38.5 13.71875 C 39.273438 14.773438 40.515625 15.46875 42 15.75 L 42 42.5 L 32 38.3125 Z M 5 10 C 5.5625 10 6 10.4375 6 11 C 6 11.5625 5.5625 12 5 12 C 4.4375 12 4 11.5625 4 11 C 4 10.4375 4.4375 10 5 10 Z M 45 10 C 45.5625 10 46 10.4375 46 11 C 46 11.5625 45.5625 12 45 12 C 44.4375 12 44 11.5625 44 11 C 44 10.4375 44.4375 10 45 10 Z M 5 14 C 5.542969 14 5.96875 14.402344 6 14.9375 C 6 14.957031 6 14.980469 6 15 L 6 44 C 6 44.03125 6 44.0625 6 44.09375 L 6 46 L 4 46 L 4 15 C 4 14.433594 4.433594 14 5 14 Z M 45 14 C 45.566406 14 46 14.433594 46 15 L 46 46 L 44 46 L 44 44.15625 C 44.003906 44.105469 44.003906 44.050781 44 44 L 44 15 C 44 14.96875 44 14.9375 44 14.90625 C 44.046875 14.386719 44.46875 14 45 14 Z M 16 23 C 15.449219 23 15 23.894531 15 25 C 15 26.105469 15.449219 27 16 27 C 16.550781 27 17 26.105469 17 25 C 17 23.894531 16.550781 23 16 23 Z M 34 23 C 33.449219 23 33 23.894531 33 25 C 33 26.105469 33.449219 27 34 27 C 34.550781 27 35 26.105469 35 25 C 35 23.894531 34.550781 23 34 23 Z"/></svg>